<?xml version="1.0" encoding="UTF-8" standalone="no"?>
<!-- Created with Inkscape (http://www.inkscape.org/) -->

<svg
   xmlns:dc="http://purl.org/dc/elements/1.1/"
   xmlns:cc="http://creativecommons.org/ns#"
   xmlns:rdf="http://www.w3.org/1999/02/22-rdf-syntax-ns#"
   xmlns:svg="http://www.w3.org/2000/svg"
   xmlns="http://www.w3.org/2000/svg"
   xmlns:sodipodi="http://sodipodi.sourceforge.net/DTD/sodipodi-0.dtd"
   xmlns:inkscape="http://www.inkscape.org/namespaces/inkscape"
   version="1.0"
   width="579pt"
   height="579pt"
   viewBox="0 0 579 579"
   id="svg2984"
   inkscape:version="0.48.4 r9939"
   sodipodi:docname="SGH03-GHS-pictogram-rondflam.svg">
  <metadata
     id="metadata2996">
    <rdf:RDF>
      <cc:Work
         rdf:about="">
        <dc:format>image/svg+xml</dc:format>
        <dc:type
           rdf:resource="http://purl.org/dc/dcmitype/StillImage" />
      </cc:Work>
    </rdf:RDF>
  </metadata>
  <defs
     id="defs2994" />
  <sodipodi:namedview
     pagecolor="#ffffff"
     bordercolor="#666666"
     borderopacity="1"
     objecttolerance="10"
     gridtolerance="10"
     guidetolerance="10"
     inkscape:pageopacity="0"
     inkscape:pageshadow="2"
     inkscape:window-width="1920"
     inkscape:window-height="1030"
     id="namedview2992"
     showgrid="false"
     inkscape:zoom="0.32607945"
     inkscape:cx="374.14195"
     inkscape:cy="361.875"
     inkscape:window-x="0"
     inkscape:window-y="25"
     inkscape:window-maximized="1"
     inkscape:current-layer="svg2984" />
  <path
     d="m 358.6875,105.6875 c -11.0423,11.95104 -0.0346,61.12295 -22.84375,107.21875 -11.82513,-12.61346 -16.56692,-36.26863 -29.96875,-48.09375 7.07046,18.13186 -12.62633,16.55766 -5.53125,79.625 -10.70725,-2.67681 -11.03725,-7.08846 -34.6875,-35.46875 4.40353,27.52204 1.60663,44.94217 7.125,75.6875 0,0 -5.70036,-1.20109 -33.125,-21.3125 8.90084,29.98175 -6.64874,93.11169 28.78125,137.75 L 268.3125,401 c 2.72662,40.394 31.19994,73.76178 69.125,83.84375 l -68.53125,0 0,29.03125 191.125,0 0,-29.03125 -74.53125,0 c 34.31242,-9.12298 60.86623,-37.31555 67.625,-72.53125 l 0,-0.0312 c 9.39301,-15.01304 51.40412,-63.61206 19.09375,-141.8125 0,0 -9.4793,17.37784 -26.8125,22.0625 0,0 22.20763,-37.01824 3.9375,-67 0,0 -5.35488,21.90682 -23.625,22.84375 0,0 8.89287,-46.72414 -15,-76.46875 -8.67176,19.70855 5.19251,27.87556 -23.65625,44.15625 -3.94686,-60.72292 -16.54987,-70.95791 -28.375,-110.375 z M 352.375,238.125 c 11.01517,6.77856 18.93899,18.4373 21.34375,40.3125 1.05774,9.62189 4.65443,15.13583 7.28125,24.90625 -6.29922,-1.34256 -12.83332,-2.0625 -19.53125,-2.0625 -8.18497,0 -16.11998,1.04974 -23.6875,3.03125 -1.67751,-31.86822 15.00282,-24.87128 14.59375,-66.1875 z M 312.1875,261 c 0,0 4.40898,27.77921 15.65625,46.53125 -7.92479,3.0634 -15.31997,7.1944 -22.03125,12.1875 -3.69493,-28.7985 4.67257,-35.31053 6.375,-58.71875 z m 97.75,14.1875 c 0,0 4.12977,27.81515 9.75,46.46875 -8.90612,-7.11682 -19.14913,-12.63435 -30.28125,-16.125 4.69142,-9.60066 11.90829,-22.24339 20.53125,-30.34375 z m -141.125,30.75 c 0,0 8.37007,8.44267 30.25,19.28125 -7.67749,6.90282 -14.19535,15.07005 -19.25,24.15625 -3.41197,-11.17507 -8.20021,-28.03871 -11,-43.4375 z m 185.28125,10.25 c 0.73429,10.28004 0.74714,35.28952 -3.9375,48.875 l 0.0312,0.46875 c -4.13898,-12.61932 -10.89159,-24.04796 -19.625,-33.65625 5.63339,-4.50221 15.21199,-11.68192 23.53125,-15.6875 z m -93.4375,10.90625 c 36.83069,10e-6 66.71875,29.91931 66.71875,66.75 0,36.83069 -29.88806,66.71875 -66.71875,66.71875 -36.83068,0 -66.71875,-29.88806 -66.71875,-66.71875 0,-36.83068 29.88806,-66.75 66.71875,-66.75 z"
     transform="scale(0.8,0.8)"
     style="fill:#000000;stroke:none"
     id="path2990" />
</svg>
