<?xml version="1.0" encoding="UTF-8" standalone="no"?>
<svg
   xmlns:dc="http://purl.org/dc/elements/1.1/"
   xmlns:cc="http://creativecommons.org/ns#"
   xmlns:rdf="http://www.w3.org/1999/02/22-rdf-syntax-ns#"
   xmlns:svg="http://www.w3.org/2000/svg"
   xmlns="http://www.w3.org/2000/svg"
   xmlns:sodipodi="http://sodipodi.sourceforge.net/DTD/sodipodi-0.dtd"
   xmlns:inkscape="http://www.inkscape.org/namespaces/inkscape"
   version="1.1"
   width="723.75"
   height="723.75"
   viewBox="0 0 579 579.00002"
   id="svg2"
   inkscape:version="0.48.4 r9939"
   sodipodi:docname="SGH07-GHS-pictogram-exclam.svg">
  <metadata
     id="metadata14">
    <rdf:RDF>
      <cc:Work
         rdf:about="">
        <dc:format>image/svg+xml</dc:format>
        <dc:type
           rdf:resource="http://purl.org/dc/dcmitype/StillImage" />
      </cc:Work>
    </rdf:RDF>
  </metadata>
  <defs
     id="defs12" />
  <sodipodi:namedview
     pagecolor="#ffffff"
     bordercolor="#666666"
     borderopacity="1"
     objecttolerance="10"
     gridtolerance="10"
     guidetolerance="10"
     inkscape:pageopacity="0"
     inkscape:pageshadow="2"
     inkscape:window-width="1920"
     inkscape:window-height="1030"
     id="namedview10"
     showgrid="false"
     units="px"
     inkscape:zoom="0.32607945"
     inkscape:cx="-124.20286"
     inkscape:cy="239.20551"
     inkscape:window-x="0"
     inkscape:window-y="25"
     inkscape:window-maximized="1"
     inkscape:current-layer="svg2" />
  <path
     d="m 289.175,142.82502 c -0.87285,0.01 -1.58484,0.031 -1.925,0.05 -12.3593,0.8504 -23.29003,5.2183 -30.15,12.05 -2.18272,2.1732 -3.56553,4.0588 -4.775,6.525 -0.85041,1.7291 -1.28149,3.0302 -1.65,4.75 -0.23623,1.1244 -0.275,1.3706 -0.275,3.525 0,2.0882 0.0232,2.4371 0.25,3.675 0.24567,1.3795 19.50097,131.43 19.775,133.575 0.18898,1.4929 0.70196,3.461 1.25,4.85 2.86305,7.2284 9.1847,12.2883 16.725,13.375 1.41735,0.2078 4.50765,0.2078 5.925,0 9.32616,-1.3418 16.75607,-8.8861 17.975,-18.25 0.34016,-2.6174 19.52933,-132.365 19.775,-133.65 0.21733,-1.2284 0.225,-1.5785 0.225,-3.525 0,-2.2772 -0.0654,-3.0937 -0.5,-4.7 -0.73702,-2.7025 -2.19741,-5.5061 -4.125,-7.925 -1.53074,-1.9276 -4.03106,-4.1992 -6.45,-5.9 -5.44262,-3.8174 -13.01245,-6.6945 -20.6,-7.8 -3.40164,-0.4914 -4.61922,-0.5872 -8.55,-0.625 -0.98742,-0.01 -2.02715,-0.01 -2.9,0 z m 2.1,201.125 c -0.49666,0 -0.96909,0.01 -1.425,0.025 -7.50251,0.3212 -14.60954,3.5156 -20.175,9.1 -1.68193,1.6819 -2.75214,2.9657 -4.075,4.95 -3.07093,4.6205 -4.70293,9.1059 -5.525,15.125 -0.16063,1.2094 -0.17008,6.6832 0,8.025 0.81262,6.6143 3.23418,12.4886 7.25,17.525 0.97325,1.2283 2.94997,3.27 4.15,4.3 3.62841,3.1087 8.00622,5.4289 12.4,6.525 2.8725,0.7181 4.36628,0.9 7.475,0.9 3.06148,0 4.61313,-0.1947 7.325,-0.875 7.38911,-1.8426 14.03732,-6.6013 18.45,-13.225 3.25046,-4.8946 5.1242,-10.3155 5.625,-16.325 0.13229,-1.6158 0.0484,-5.7077 -0.15,-7.125 -0.55749,-4.1104 -1.55253,-7.4512 -3.225,-10.9 -4.71506,-9.6853 -13.70453,-16.3921 -23.9,-17.8 -1.11262,-0.1489 -2.71001,-0.2211 -4.2,-0.225 z"
     style="fill:#000000;stroke:none"
     id="path8"
     inkscape:connector-curvature="0" />
</svg>
