<?xml version="1.0" encoding="UTF-8" standalone="no"?>
<svg
   xmlns:dc="http://purl.org/dc/elements/1.1/"
   xmlns:cc="http://creativecommons.org/ns#"
   xmlns:rdf="http://www.w3.org/1999/02/22-rdf-syntax-ns#"
   xmlns:svg="http://www.w3.org/2000/svg"
   xmlns="http://www.w3.org/2000/svg"
   xmlns:sodipodi="http://sodipodi.sourceforge.net/DTD/sodipodi-0.dtd"
   xmlns:inkscape="http://www.inkscape.org/namespaces/inkscape"
   height="724"
   width="724"
   id="svg3012"
   version="1.1"
   inkscape:version="0.48.4 r9939"
   sodipodi:docname="SGH09-GHS-pictogram-pollu.svg">
  <metadata
     id="metadata3034">
    <rdf:RDF>
      <cc:Work
         rdf:about="">
        <dc:format>image/svg+xml</dc:format>
        <dc:type
           rdf:resource="http://purl.org/dc/dcmitype/StillImage" />
      </cc:Work>
    </rdf:RDF>
  </metadata>
  <defs
     id="defs3032" />
  <sodipodi:namedview
     pagecolor="#ffffff"
     bordercolor="#666666"
     borderopacity="1"
     objecttolerance="10"
     gridtolerance="10"
     guidetolerance="10"
     inkscape:pageopacity="0"
     inkscape:pageshadow="2"
     inkscape:window-width="1920"
     inkscape:window-height="1030"
     id="namedview3030"
     showgrid="false"
     inkscape:zoom="0.92197348"
     inkscape:cx="400.08882"
     inkscape:cy="324.31662"
     inkscape:window-x="0"
     inkscape:window-y="25"
     inkscape:window-maximized="1"
     inkscape:current-layer="svg3012" />
  <g
     stroke="#000"
     stroke-width="5"
     id="g3018">
    <path
       d="m218 361.78h281.2"
       id="path3020" />
    <path
       stroke-width="4"
       d="m255.9 434.78 34.61-20.01 1.623-85.4-42.72-23.25s-6.489-4.326-15.68-1.622c-3.245 1.082-7.57 2.163-7.57 2.163s23.25-19.47 27.58-17.84c4.326 1.622 34.61 16.22 34.61 16.22s-3.245-22.71-11.36-29.2c-8.111-6.489-39.47-31.36-39.47-31.36v-5.948l42.72 25.96s1.622-24.87-7.029-39.47c-8.652-14.6-15.14-27.58-15.14-27.58l2.704-2.163 21.09 32.44 7.03-22.17 4.326-1.082s-5.408 31.36-1.623 41.1 17.84 62.73 17.84 62.73l21.09-30.28s0.541-12.44-0.541-21.09-2.704-48.67-2.704-48.67h3.785l5.948 43.8 34.05-39.47v4.326s-33.51 42.18-31.89 51.37c1.622 9.193 3.244 14.6-2.704 27.58s-9.733 22.17-9.733 22.17 17.84-21.09 25.96-22.71c8.111-0.541 18.91 0.541 26.48-5.948s25.96-27.04 25.96-27.04l-28.66 44.34s-13.51 0.541-18.91 6.489c-5.408 5.948-27.58 31.36-27.58 31.36v58.36l36.76 18.38-44.87 6.489-10.82 15.68-14.6-12.44z"
       id="path3022" />
    <path
       stroke-width="4"
       d="m276.4 476.88c10.82-4.866 89.76-38.39 89.76-36.23s90.84-28.12 90.84-28.12l32.98 23.79-31.36 15.14 42.18 3.785-11.36 15.14h23.25l0.541 16.76-294.2-1.618s49.23-14.59 57.34-8.646z"
       id="path3024" />
    <path
       d="m349.4 439.68c10.29-4.288 27.02-11.36 36.76-25.42 10.06-14.54 45.96-75.67 95.17-70.8-2.704 6.489-11.36 20.55-11.36 20.55l35.15-10.82s0.541 46.47-65.97 76.21c-30.82 10.82-37.31 11.36-40.02 15.14-2.704 3.785-15.14 22.71-15.14 22.71l-55-24.4s14.06-0.539 20.55-3.242z"
       fill="#fff"
       id="path3026" />
  </g>
  <path
     d="m472.7 380.48c0-2.831 2.663-5.126 5.948-5.126 3.284 0 5.947 2.295 5.947 5.126 0 2.837-2.663 5.138-5.947 5.138-3.285 0-5.948-2.301-5.948-5.138z"
     id="path3028" />
  <path
     inkscape:connector-curvature="0"
     style="fill:#ff0000;fill-opacity:1;stroke:none"
     d="M 362.31326,7.561736 8.0945088,361.78049 362.21951,715.90549 716.43826,361.65549 362.31326,7.561736 z M 362.65701,63.37424 659.75076,360.43674 361.59451,658.62424 64.500759,361.53049 362.65701,63.37424 z"
     id="rect3751" />
</svg>
