<?xml version="1.0" encoding="UTF-8" standalone="no"?>
<!-- Created with Inkscape (http://www.inkscape.org/) -->

<svg
   xmlns:dc="http://purl.org/dc/elements/1.1/"
   xmlns:cc="http://creativecommons.org/ns#"
   xmlns:rdf="http://www.w3.org/1999/02/22-rdf-syntax-ns#"
   xmlns:svg="http://www.w3.org/2000/svg"
   xmlns="http://www.w3.org/2000/svg"
   xmlns:sodipodi="http://sodipodi.sourceforge.net/DTD/sodipodi-0.dtd"
   xmlns:inkscape="http://www.inkscape.org/namespaces/inkscape"
   version="1.0"
   width="579pt"
   height="579pt"
   viewBox="0 0 579 579"
   id="svg3050"
   inkscape:version="0.48.4 r9939"
   sodipodi:docname="SGH04-GHS-pictogram-bottle.svg">
  <metadata
     id="metadata3062">
    <rdf:RDF>
      <cc:Work
         rdf:about="">
        <dc:format>image/svg+xml</dc:format>
        <dc:type
           rdf:resource="http://purl.org/dc/dcmitype/StillImage" />
      </cc:Work>
    </rdf:RDF>
  </metadata>
  <defs
     id="defs3060" />
  <sodipodi:namedview
     pagecolor="#ffffff"
     bordercolor="#666666"
     borderopacity="1"
     objecttolerance="10"
     gridtolerance="10"
     guidetolerance="10"
     inkscape:pageopacity="0"
     inkscape:pageshadow="2"
     inkscape:window-width="1920"
     inkscape:window-height="1030"
     id="namedview3058"
     showgrid="false"
     inkscape:zoom="0.92229195"
     inkscape:cx="360.43938"
     inkscape:cy="348.15921"
     inkscape:window-x="0"
     inkscape:window-y="25"
     inkscape:window-maximized="1"
     inkscape:current-layer="svg3050" />
  <path
     d="m 437.625,288 c -0.96852,-0.003 -1.94831,0.044 -2.5625,0.15625 -1.19294,0.22442 -231.26696,61.9936 -232.09375,62.3125 -6.51981,2.56304 -10.8959,9.67009 -12.21875,19.875 -0.27166,2.06698 -0.39936,5.8405 -0.28125,8.25 0.18898,3.90952 0.69954,7.2391 1.65625,11.125 3.89771,15.82707 13.74562,28.26275 24.28125,30.625 1.22837,0.27166 4.11537,0.34941 5.34375,0.125 1.03939,-0.17716 229.02875,-61.31076 231.34375,-62.03125 4.4056,-1.3701 7.72314,-4.44552 10.15625,-9.40625 1.3583,-2.75203 2.17814,-5.41479 2.875,-9.3125 0.55513,-3.07092 1.0327,-4.39071 2.34375,-6.375 1.59453,-2.42131 4.35697,-4.48571 7.15625,-5.3125 0.46064,-0.12992 11.84004,-3.17881 25.28125,-6.78125 13.4412,-3.61424 24.7276,-6.70964 25.09375,-6.875 5.43318,-2.49216 7.41122,-10.42801 4.28125,-17.125 -1.72444,-3.67329 -4.8491,-6.38508 -8.15625,-7.09375 -1.12207,-0.23623 -2.83488,-0.20916 -3.96875,0.0625 -0.5197,0.12992 -11.71309,3.12469 -24.90625,6.65625 -13.18136,3.54337 -24.27066,6.51108 -24.625,6.59375 -0.4252,0.1063 -1.36045,0.15625 -2.71875,0.15625 -2.26776,-0.0118 -3.138,-0.16214 -4.96875,-0.90625 -2.29139,-0.9449 -3.73567,-2.09591 -6.0625,-4.8125 -3.48431,-4.06308 -6.62887,-6.62768 -10.125,-8.28125 -1.50002,-0.69686 -3.1139,-1.22071 -4.53125,-1.46875 -0.64962,-0.11221 -1.62523,-0.1533 -2.59375,-0.15625 z"
     transform="scale(0.8,0.8)"
     style="fill:#000000;stroke:none"
     id="path3056" />
  <path
     inkscape:connector-curvature="0"
     style="fill:#ff0000;fill-opacity:1;stroke:none"
     d="M 288.88313,5.082057 5.5081257,288.45706 l 283.3000043,283.3 283.375,-283.4 -283.3,-283.275003 z m 0.275,44.650005 237.675,237.649998 -238.525,238.55 L 50.633126,288.25706 289.15813,49.732062 z"
     id="rect3751" />
</svg>
