<?xml version="1.0" encoding="UTF-8" standalone="no"?>
<!-- Created with Inkscape (http://www.inkscape.org/) -->

<svg
   xmlns:dc="http://purl.org/dc/elements/1.1/"
   xmlns:cc="http://creativecommons.org/ns#"
   xmlns:rdf="http://www.w3.org/1999/02/22-rdf-syntax-ns#"
   xmlns:svg="http://www.w3.org/2000/svg"
   xmlns="http://www.w3.org/2000/svg"
   xmlns:sodipodi="http://sodipodi.sourceforge.net/DTD/sodipodi-0.dtd"
   xmlns:inkscape="http://www.inkscape.org/namespaces/inkscape"
   width="186mm"
   height="26mm"
   viewBox="0 0 659.05508 92.125935"
   id="svg2"
   version="1.1"
   inkscape:version="0.91 r13725"
   sodipodi:docname="logo.svg">
  <defs
     id="defs4" />
  <sodipodi:namedview
     id="base"
     pagecolor="#ffffff"
     bordercolor="#666666"
     borderopacity="1.0"
     inkscape:pageopacity="0.0"
     inkscape:pageshadow="2"
     inkscape:zoom="1.3335013"
     inkscape:cx="196.32069"
     inkscape:cy="-33.010043"
     inkscape:document-units="px"
     inkscape:current-layer="layer1"
     showgrid="false"
     inkscape:window-width="1920"
     inkscape:window-height="1171"
     inkscape:window-x="1920"
     inkscape:window-y="0"
     inkscape:window-maximized="1" />
  <metadata
     id="metadata7">
    <rdf:RDF>
      <cc:Work
         rdf:about="">
        <dc:format>image/svg+xml</dc:format>
        <dc:type
           rdf:resource="http://purl.org/dc/dcmitype/StillImage" />
        <dc:title></dc:title>
      </cc:Work>
    </rdf:RDF>
  </metadata>
  <g
     inkscape:label="Calque 1"
     inkscape:groupmode="layer"
     id="layer1"
     transform="translate(0,-960.23629)">
    <g
       id="g4207"
       transform="matrix(0.27397337,0,0,0.27397337,276.30586,984.94733)">
      <path
         style="fill:#9e9e9e"
         d="m 345.7247,246.79041 c -28.1773,-5.09926 -52.2452,-23.18729 -65.1142,-48.93595 -5.1119,-10.22788 -8.8845,-22.90965 -9.0733,-30.5 l -0.1617,-6.5 6.9007,0 6.9007,0 2.7146,11 c 4.4129,17.88162 9.934,28.3056 21.2988,40.21211 39.7989,41.69613 116.4383,21.49277 130.7506,-34.46796 2.6198,-10.24329 2.621,-26.24037 0,-36.47771 -6.2666,-24.50249 -24.1802,-42.60169 -50.5681,-51.09213 -4.4,-1.41572 -15.425,-4.45255 -24.5,-6.7485 -53.1235,-13.44012 -76.5413,-30.28226 -84.7129,-60.92581 -2.701,-10.12867 -2.4401,-33.0648 0.4924,-43.28546 6.9139,-24.09688 22.5441,-42.386437 45.5294,-53.275909 20.9097,-9.906147 50.7944,-11.061739 71.5306,-2.765969 25.9087,10.365134 43.406,31.955968 49.621,61.230238 1.8962,8.93119 1.6647,9.23655 -6.7383,8.88843 l -7.0321,-0.29133 -2.3446,-9 c -5.4266,-20.82982 -16.8565,-36.86512 -31.8455,-44.676813 -9.2966,-4.84505 -16.8249,-6.753816 -29.5422,-7.490335 -42.535,-2.463406 -74.7162,24.471808 -76.6646,64.167148 -1.3487,27.47806 10.3034,46.32935 36.2068,58.5768 10.4241,4.92866 20.3015,8.11579 40.4712,13.05888 28.4693,6.97711 37.5577,10.42895 50.5288,19.19114 18.3429,12.39093 30.649,30.85385 35.0431,52.57522 1.3001,6.42674 1.5911,11.71644 1.238,22.5 -0.4096,12.50989 -0.8222,15.16809 -3.6632,23.59796 -4.6987,13.94193 -10.9463,23.82844 -22.1179,35 -11.2651,11.26507 -21.5431,17.75629 -35.7375,22.57043 -15.9821,5.42046 -33.3245,6.77712 -49.4133,3.86552 z m 511.1508,0.0533 c -25.3598,-3.48262 -49.4249,-12.67829 -71.5,-27.32133 -13.0525,-8.6581 -33.653,-29.05557 -42.3913,-41.97355 C 718.0456,140.68166 708.7575,95.954 716.8397,51.64895 c 14.7567,-80.89193 85.7856,-137.021793 169.5358,-133.973895 37.3753,1.360188 70.8825,13.93711 99.8059,37.462115 13.4026,10.90109 34.9566,36.36542 33.1945,39.21662 -0.3401,0.55034 -3.8891,1.00063 -7.8865,1.00063 l -7.2681,0 -8.5559,-10.29242 c -37.1896,-44.738174 -96.2121,-63.344859 -154.463,-48.694002 -41.8968,10.537612 -77.1152,38.776262 -96.5375,77.405252 -5.2388,10.41955 -11.1162,28.47623 -13.3718,41.08117 -2.193,12.25497 -2.48,40.18189 -0.5345,52 5.727,34.78976 21.2925,64.50709 45.807,87.45406 20.0176,18.73765 44.1071,30.94807 73.3099,37.15921 14.1868,3.01737 44.7816,3.30408 58.4637,0.54786 66.9519,-13.48722 114.9679,-66.39217 121.9903,-134.41113 l 0.6453,-6.25 -92.6154,0 c -61.9298,0 -93.2562,-0.34298 -94.5496,-1.03518 -2.8159,-1.507 -2.8159,-11.42264 0,-12.92964 2.6805,-1.43459 195.8802,-1.4364 199.6533,-0.002 l 2.7178,1.03331 -0.6523,13.21669 c -4.421,89.57066 -76.5389,157.35472 -166.6269,156.61365 -6.8894,-0.0567 -16.8012,-0.69012 -22.0262,-1.40767 z m 355.675,0.45466 c -70.4202,-8.18426 -127.9073,-59.66768 -142.6803,-127.77963 -6.0086,-27.70264 -4.9447,-57.57914 3.0238,-84.91929 18.5141,-63.52253 73.5591,-108.971015 140.8486,-116.293112 13.4295,-1.461334 35.7434,-0.773072 48.1329,1.484637 23.3022,4.246306 50.4982,15.81518 68.2559,29.035265 34.2145,25.47168 56.4544,60.66094 64.9531,102.77278 1.9351,9.58849 2.265,14.29143 2.2277,31.7554 -0.039,18.30664 -0.3296,21.84828 -2.7159,33.10155 -7.1258,33.60325 -20.9938,59.22432 -45.1806,83.47071 -27.5366,27.60434 -59.2796,42.9401 -98.0807,47.38497 -10.1894,1.16726 -28.6812,1.16092 -38.7845,-0.0133 z m 49.6248,-15.89988 c 59.1674,-11.69927 105.7279,-58.31024 117.814,-117.94161 2.6021,-12.8387 3.5077,-35.08778 1.9418,-47.70914 -8.4136,-67.81721 -55.2896,-118.72506 -121.5919,-132.050231 -13.7879,-2.771042 -44.3539,-2.49527 -58.4637,0.527472 -30.0338,6.434124 -54.1973,18.879079 -74.704,38.474759 -17.9351,17.13838 -29.5978,35.24014 -37.698,58.51133 -6.0879,17.49008 -8.0294,29.86978 -8.021,51.14335 0.01,24.03321 2.849,39.387 11.0523,59.76294 19.6254,48.74709 64.2957,83.04689 118.2315,90.78312 13.5585,1.94475 37.5505,1.2442 51.439,-1.50199 z m -1800.67636,9.41702 c -0.34289,-0.89357 -0.62344,-69.53786 -0.62344,-152.54288 l 0,-150.91821 -47.25,-0.01531 c -25.9875,-0.0084 -47.77682,-0.350429 -48.42072,-0.760017 -1.73326,-1.102547 -2.63939,-5.758104 -1.89402,-9.731243 l 0.65537,-3.493427 104.84769,0 c 116.57729,0 106.07771,-0.676411 106.04637,6.831787 -0.0295,7.078761 3.21729,6.615113 -50.19772,7.168213 l -48.28697,0.5 -0.5,152 -0.5,151.999997 -6.62656,0.29288 c -5.37267,0.23745 -6.74452,-0.0146 -7.25,-1.33179 z m 33.90434,0.58385 c -0.35326,-0.57158 29.92234,-72.25302 67.27912,-159.29209 l 67.92141,-158.25285 8.9593,-0.28519 c 8.93735,-0.284491 8.96246,-0.278368 10.25436,2.5 1.31917,2.837007 5.31512,12.129314 88.01054,204.66213 28.80781,67.07081 46.83435,110.2362 46.27142,110.79913 -0.5072,0.5072 -4.01824,0.78758 -7.8023,0.62306 l -6.8801,-0.29913 -23.54532,-54.5 -23.54531,-54.5 -82.23562,-0.25581 -82.23562,-0.25582 -2.02662,4.25582 c -1.11464,2.34069 -11.82962,26.98081 -23.81106,54.75581 l -21.78444,50.5 -7.09374,0.29209 c -4.15148,0.17095 -7.36014,-0.13895 -7.73602,-0.74715 z m 218.87427,-123.88645 c 0.28604,-0.46283 -15.7021,-39.27533 -35.52921,-86.25 -19.82711,-46.97467 -36.50361,-86.64599 -37.05889,-88.15849 -0.55528,-1.5125 -1.35253,-2.75 -1.77167,-2.75 -0.83407,0 -74.11098,172.09901 -74.83144,175.75 l -0.44399,2.25 74.55756,0 c 41.00665,0 74.79159,-0.37868 75.07764,-0.84151 z m 83.07741,123.63751 c -0.2712,-0.7128 -0.37752,-72.396 -0.23627,-159.296 l 0.25681,-158 7,0 7,0 0.25461,104.75 c 0.14003,57.6125 0.59003,104.73516 1,104.71703 0.40996,-0.0181 9.97039,-12.20669 21.24539,-27.08569 11.275,-14.87899 32.21204,-42.42665 46.52676,-61.21703 14.31471,-18.79037 41.00939,-53.85181 59.32154,-77.91431 l 33.2947,-43.75 7.9285,0 c 6.1018,0 7.9285,0.320232 7.9285,1.389917 0,0.764455 -15.1875,21.418793 -33.75,45.898523 -62.9214,82.97908 -81.74822,107.89907 -82.46217,109.15048 -0.43137,0.75611 2.75585,5.94286 8.08346,13.15469 4.83759,6.54851 19.5823,26.53139 32.76601,44.40639 13.1837,17.875 35.3709,47.94023 49.3049,66.81162 13.934,18.87139 25.6602,33.94639 26.0582,33.5 0.3979,-0.44639 30.5344,-70.33662 66.9699,-155.31162 36.4356,-84.975 66.8943,-155.529704 67.6862,-156.788231 1.3457,-2.138786 2.0057,-2.269407 10.1058,-2 l 8.6661,0.288231 23.1697,54 c 12.7433,29.7 43.2611,100.77608 67.8172,157.94685 24.5562,57.17076 44.415,104.55311 44.1306,105.2941 -0.3821,0.99577 -2.3804,1.27052 -7.6595,1.05315 l -7.1424,-0.2941 -23.6026,-54.75573 -23.6026,-54.75573 -82.3913,0.25573 -82.3913,0.25573 -23.1498,53.5 c -12.7324,29.425 -23.5041,54.0625 -23.9371,54.75 -0.5723,0.90857 -4.8449,1.25 -15.6425,1.25 l -14.8551,0 -54.45137,-73.75 c -29.94828,-40.5625 -55.07442,-73.85164 -55.83587,-73.97586 -0.77862,-0.12702 -12.10564,13.79775 -25.88446,31.82083 l -24.5,32.04667 -0.5,41.67918 -0.5,41.67918 -6.76373,0.296 c -4.84055,0.21184 -6.90393,-0.0725 -7.25681,-1 z M 207.8755,117.29473 c 0,-0.58285 -15.4849,-37.82035 -34.4109,-82.75 -40.192,-95.414579 -39.6667,-94.192077 -40.4698,-94.184183 -0.6414,0.0063 -73.7582,171.897153 -74.7775,175.794993 l -0.5751,2.19892 75.1167,0 c 52.2336,0 75.1166,-0.32283 75.1166,-1.05973 z m 241.2306,122.30973 c 0.3724,-2.23859 127.0055,-298.185202 133.3952,-311.75 l 1.8842,-4 8.6995,-0.28827 c 8.6308,-0.285993 8.7108,-0.266247 10.1262,2.5 1.2278,2.399574 41.4166,95.82578 115.2759,267.97958 10.6636,24.85522 19.3884,45.89272 19.3884,46.75 0,1.26265 -1.3251,1.55869 -6.9769,1.55869 -6.144,0 -7.1481,-0.26863 -8.4104,-2.25 -0.7884,-1.2375 -11.6645,-25.99009 -24.1692,-55.00575 l -22.7357,-52.75574 -82.4153,0.25574 -82.4154,0.25575 -22.8666,53 c -12.5766,29.15 -23.3527,53.7875 -23.947,54.75 -0.865,1.40108 -2.4971,1.75 -8.1855,1.75 l -7.105,0 0.4576,-2.75 z m 218.5324,-123.5 c -0.2586,-1.2375 -15.673,-38.25 -34.2542,-82.25 -18.5812,-44 -34.995,-82.925 -36.4751,-86.5 -1.4801,-3.575 -3.1057,-6.443663 -3.6124,-6.374807 -1.254,0.170407 -75.5612,175.339477 -74.8604,176.473347 0.3228,0.52224 31.9215,0.90146 75.1147,0.90146 l 74.5576,0 -0.4702,-2.25 z m -1670.563,124.05 c -0.9121,-0.91206 -1.2,-19.24849 -1.2,-76.41821 0,-41.37002 0.2731,-75.93002 0.607,-76.8 0.5461,-1.42323 8.24442,-1.58179 76.79999,-1.58179 57.9279,0 76.48068,0.28767 77.39301,1.2 1.58761,1.58761 1.74753,149.90842 0.16482,152.86574 -1.00948,1.88622 -2.91701,1.93426 -76.8,1.93426 -57.59486,0 -76.05262,-0.28778 -76.96482,-1.2 z m 163,0 c -1.7371,-1.7371 -1.7371,-151.8629 0,-153.6 0.91233,-0.91233 19.46511,-1.2 77.39301,-1.2 68.55557,0 76.25386,0.15856 76.8,1.58179 0.33385,0.86998 0.60699,35.42998 0.60699,76.8 0,57.16972 -0.28794,75.50615 -1.2,76.41821 -1.7371,1.7371 -151.8629,1.7371 -153.6,0 z m -163.593,-164.38179 c -0.3339,-0.86998 -0.607,-34.97998 -0.607,-75.8 0,-56.39194 0.2882,-74.506435 1.2,-75.41821 1.7448,-1.744762 314.85524,-1.744762 316.6,0 0.91178,0.911775 1.2,19.02627 1.2,75.41821 0,40.82002 -0.27314,74.93002 -0.60699,75.8 -0.54996,1.43317 -15.47935,1.58179 -158.89301,1.58179 -143.41366,0 -158.3431,-0.14862 -158.893,-1.58179 z"
         id="path4215"
         inkscape:connector-curvature="0" />
      <path
         style="fill:#a21869"
         d="m 349.0435,246.20092 c -25.2467,-3.61507 -47.7244,-18.09303 -62.5355,-40.27936 -7.0852,-10.61338 -13.6544,-29.1642 -13.9858,-39.49469 l -0.1467,-4.57241 5.9007,0 5.9007,0 2.747,11 c 3.3363,13.35922 5.5768,18.55367 12.5829,29.17209 9.7522,14.78036 23.4797,24.89628 41.3687,30.48488 6.4864,2.02638 9.5272,2.33989 22.5,2.31982 17.4909,-0.0271 23.1858,-1.25453 37,-7.9748 15.9162,-7.74288 27.8151,-19.48031 35.4835,-35.00199 5.4523,-11.03618 7.3792,-19.65802 7.3752,-33 -0.01,-26.57629 -12.4268,-48.20957 -35.811,-62.38186 -7.6923,-4.66204 -15.7548,-7.4422 -39.5477,-13.63703 -11.275,-2.93562 -24.55,-6.7718 -29.5,-8.52486 C 305.7583,62.75922 287.5818,45.92112 281.21,21.35446 c -2.2923,-8.83804 -2.3086,-30.00444 -0.03,-39.24096 8.5598,-34.70119 36.9432,-58.827784 74.0909,-62.978933 18.5562,-2.073606 39.034,1.903624 53.3136,10.354628 12.9194,7.646071 26.7461,23.831345 32.3473,37.865265 2.8074,7.03386 5.9047,18.6866 5.9269,22.29772 0.017,2.79444 0.01,2.79737 -6.1384,2.5 l -6.1556,-0.29772 -2.3254,-8.77431 c -7.6975,-29.04437 -24.3997,-46.024883 -50.4657,-51.306528 -11.3137,-2.292451 -30.5366,-1.54572 -40.3978,1.569292 -23.0152,7.270151 -38.576,21.940946 -46.1613,43.521146 -2.5799,7.33959 -2.8092,9.17141 -2.8151,22.4904 -0.01,13.17004 0.2346,15.16186 2.6229,21.71602 8.6884,23.84374 28.7199,36.5645 75.3303,47.83762 27.3242,6.60859 38.623,11.02757 51.0232,19.95531 23.8473,17.16925 35.5604,42.16356 34.2057,72.99105 -0.7113,16.18613 -4.1394,28.12665 -11.8511,41.27879 -5.1582,8.79727 -22.7752,25.83506 -32.1966,31.13812 -18.7304,10.54281 -41.6362,14.91561 -62.49,11.92955 z m 517.832,0.49112 c -31.0061,-3.03283 -55.7741,-11.58759 -79.5,-27.45897 -24.5715,-16.43706 -43.1378,-37.64125 -55.4941,-63.37861 -6.3167,-13.15724 -9.2671,-21.63728 -12.3649,-35.53982 -13.6513,-61.26521 7.1081,-124.85606 53.2636,-163.15905 27.173,-22.54999 57.3284,-34.685133 94.2237,-37.917623 48.3501,-4.236069 94.3598,12.558087 128.9489,47.068063 11.6244,11.59785 21.9228,24.24621 21.9228,26.92542 0,0.71435 -2.342,1.12301 -6.4358,1.12301 l -6.4357,0 -5.9502,-7.25 c -23.116,-28.16564 -52.6278,-46.365651 -87.4899,-53.955298 -8.7132,-1.896896 -13.2291,-2.218064 -31.1884,-2.218064 -18.089,0 -22.4555,0.314894 -31.5,2.271667 -57.3083,12.398615 -99.4084,51.219685 -115.4034,106.415085 -4.3815,15.11978 -5.9119,29.08062 -5.2877,48.23661 0.8316,25.5163 4.7528,41.53949 15.6623,64 25.3711,52.2343 76.6875,83.46798 137.1794,83.4941 65.937,0.0285 123.141,-41.72769 143.8611,-105.01166 3.4949,-10.67419 7.2681,-31.06353 6.7984,-36.73668 l -0.3101,-3.74576 -94,-0.5 -94,-0.5 0,-5 0,-5 100.2795,-0.25481 c 89.4606,-0.22732 100.3432,-0.0889 100.8696,1.28287 0.9435,2.4585 -1.4952,28.10759 -3.6359,38.24236 -2.8788,13.62883 -7.3326,26.20178 -14.0735,39.72958 -21.5935,43.33378 -62.5394,75.09672 -110.0315,85.35459 -15.9033,3.43497 -36.0354,4.83994 -49.9082,3.48299 z m 348.0498,-0.42384 c -12.358,-1.19004 -23.0256,-3.52666 -36.4029,-7.97365 -57.1425,-18.99579 -98.2034,-66.50958 -108.8174,-125.91849 -2.7697,-15.50272 -2.9645,-41.01278 -0.4315,-56.5216 10.4286,-63.85302 55.5758,-114.263862 117.4226,-131.112786 48.0286,-13.084428 97.0297,-5.348387 137.8302,21.759916 13.6899,9.09576 34.1505,29.24202 43.0136,42.35287 29.6614,43.87685 37.0467,97.44983 20.357,147.67084 -23.965,72.11328 -95.0951,117.24221 -172.9716,109.7429 z m 49.1492,-13.84509 c 29.1928,-6.28732 53.738,-19.78803 75.388,-41.46604 21.8132,-21.84153 34.815,-45.68806 41.6662,-76.41985 2.961,-13.28176 3.1948,-46.97353 0.4208,-60.64648 -2.4979,-12.31193 -7.0728,-26.23852 -12.3064,-37.46202 -13.7788,-29.54851 -41.0519,-57.2337 -70.1128,-71.17197 -46.133,-22.126485 -102.5096,-19.612915 -146.6319,6.53765 -36.3754,21.55902 -61.485,57.65765 -70.2959,101.06006 -2.7841,13.71452 -2.5204,47.22738 0.4811,61.14776 12.4986,57.96545 52.1873,100.62648 107.8195,115.89412 16.1062,4.42017 25.2217,5.42533 45.3724,5.00321 13.8218,-0.28955 20.9526,-0.91577 28.199,-2.47644 z M -537.1245,89.60436 c 0,-116.77214 -0.2772,-152.127103 -1.2,-153.0499 -0.8999,-0.899897 -13.16717,-1.2 -49.05226,-1.2 l -47.85226,0 0.30226,-5.25 0.30226,-5.25 103.75,-0.25465 103.75,-0.25465 0,5.50465 0,5.50465 -47.87756,0 c -38.94839,0 -48.08628,0.251507 -48.99676,1.348565 -0.81226,0.978715 -1.18866,42.871155 -1.37244,152.750005 l -0.25324,151.40143 -5.75,0.2999 -5.75,0.29991 0,-151.84991 z m 34,150.39288 c 0,-1.26073 26.12628,-62.44454 114.28694,-267.64278 l 20.40773,-47.5 8.12255,-0.289956 8.12255,-0.289956 1.41252,3.289956 c 0.77688,1.809476 31.00495,72.139956 67.17347,156.289956 36.16853,84.15 65.97829,154.03545 66.24393,155.301 0.469,2.23445 0.29858,2.29229 -5.89336,2 l -6.37633,-0.301 -23.0796,-53.5 c -12.69378,-29.425 -23.83128,-54.2875 -24.75,-55.25 -1.56392,-1.63845 -6.82145,-1.75 -82.47927,-1.75 -63.09818,0 -81.17142,0.27396 -82.46308,1.25 -0.90982,0.6875 -12.14816,25.55 -24.9741,55.25 l -23.31988,54 -6.21704,0.29772 c -4.90617,0.23494 -6.21703,-0.009 -6.21703,-1.15494 z m 219,-122.29742 c 0,-0.91005 -14.90728,-37.02255 -33.12729,-80.25 -18.22001,-43.22745 -35.01628,-83.09536 -37.32506,-88.59536 -2.457,-5.853112 -4.77384,-10 -5.58694,-10 -0.78115,0 -2.77245,3.282647 -4.54961,7.5 -1.73824,4.125 -15.76968,37.2 -31.18096,73.5 -40.46511,95.31222 -41.3606,97.47989 -40.70701,98.53742 0.37273,0.6031 28.95555,0.96258 76.53589,0.96258 69.99079,0 75.94098,-0.12965 75.94098,-1.65464 z m 82.46179,122.40464 c -0.26149,-0.6875 -0.35986,-71.9 -0.21861,-158.25 l 0.25682,-157 5.40535,-0.307647 c 3.64725,-0.207584 5.6751,0.11767 6.23469,1 0.45613,0.719206 0.83623,48.445147 0.84465,106.057647 0.008,57.6125 0.37367,104.75 0.81167,104.75 0.70328,0 22.52304,-28.50714 134.20774,-175.34008 l 27.5041,-36.15992 6.7459,-0.29569 c 4.7714,-0.209141 6.7459,0.05821 6.7459,0.913401 0,1.346644 -0.5149,2.036031 -67.48544,90.359969 -26.26364,34.63773 -47.96779,63.53985 -48.23145,64.22693 -0.42473,1.10684 18.96333,27.77692 95.55259,131.4415 11.6404,15.75536 21.1643,28.93758 21.1643,29.29381 0,0.35623 -3.2402,0.51548 -7.2005,0.35389 l -7.2005,-0.29381 -54.67103,-74 c -30.06907,-40.7 -55.27504,-74 -56.01325,-74 -1.40574,0 -7.6175,7.72911 -35.22288,43.82679 l -16.69184,21.82678 0,39.84143 c 0,21.91278 -0.27314,40.55323 -0.60699,41.42321 -0.76695,1.99863 -11.18702,2.2884 -11.93122,0.33179 z m 191.31151,0.68994 c -0.3081,-0.30803 0.037,-1.77053 0.7659,-3.25 0.7293,-1.47947 30.866,-71.53994 66.9705,-155.68994 36.1045,-84.15 66.3073,-154.031024 67.1174,-155.291164 1.3555,-2.108477 2.0824,-2.267947 9.1162,-2 l 7.6433,0.291164 5.8479,13.5 c 22.7646,52.55242 128.6752,299.79584 128.9381,301 0.2643,1.21105 -0.904,1.5 -6.0651,1.5 l -6.3925,0 -23.1704,-53.67213 c -12.7438,-29.51967 -23.7597,-54.38217 -24.48,-55.25 -1.173,-1.41345 -9.7693,-1.57787 -82.4959,-1.57787 -63.4483,0 -81.5282,0.27311 -82.7506,1.25 -0.8603,0.6875 -9.7011,20.15 -19.6463,43.25 -23.0672,53.57877 -27.4909,63.71282 -28.483,65.25 -0.8033,1.24453 -11.7748,1.83063 -12.9155,0.68994 z M 209.2897,118.49326 c 0.5906,-0.9556 -73.6303,-177.754942 -75.3397,-179.464291 -0.6738,-0.673802 -1.3916,-0.720234 -1.9249,-0.124509 -0.4677,0.5225 -9.9876,22.55 -21.1553,48.95 -11.1678,26.4 -28.1019,66.3938 -37.6314,88.87512 -9.5294,22.48131 -17.083,41.26881 -16.7856,41.75 0.7028,1.13716 152.1342,1.15072 152.8369,0.0137 z m 240.5858,121.94837 c 0,-0.50206 4.2217,-10.73956 9.3816,-22.75 5.1599,-12.01044 35.3619,-82.36217 67.1156,-156.33717 31.7537,-73.975 58.1871,-135.0625 58.7408,-135.75 1.3741,-1.705848 15.3496,-1.705848 16.4511,0 2.1372,3.309658 135.1105,314.26516 134.6839,314.95551 -0.2701,0.43697 -3.1162,0.79449 -6.3248,0.79449 l -5.8338,0 -4.4809,-10.25 c -2.4646,-5.6375 -12.9183,-29.825 -23.2306,-53.75 -10.3123,-23.925 -19.4388,-44.2875 -20.2812,-45.25 -1.4353,-1.63993 -6.6323,-1.74904 -82.6267,-1.73469 -44.6022,0.008 -81.6792,0.38587 -82.3931,0.83878 -0.714,0.4529 -11.6744,24.85851 -24.3563,54.23468 -12.682,29.37618 -23.5155,53.97373 -24.0743,54.66123 -1.1738,1.44385 -12.7713,1.75003 -12.7713,0.33717 z M 669.3473,118.40006 c 0.3244,-0.52491 -14.5603,-36.86241 -33.0772,-80.75 -18.5168,-43.88758 -35.4875,-84.1831 -37.7127,-89.5456 -2.2251,-5.3625 -4.5881,-9.75 -5.2512,-9.75 -0.6631,0 -3.9269,6.4125 -7.253,14.25 -51.6314,121.66243 -69.1777,163.5079 -69.1777,164.97944 0,1.67854 3.9469,1.77056 75.941,1.77056 47.1294,0 76.1648,-0.36209 76.5308,-0.9544 z m -1671.4718,44.9544 0,-76 76,0 76,0 0,76 0,76 -76,0 -76,0 0,-76 z m 163,0 0,-76 76,0 76,0 0,76 0,76 -76,0 -76,0 0,-76 z M -1001.4547,75.6909 c -0.3684,-0.36838 -0.6698,-34.34477 -0.6698,-75.50311 l 0,-74.83333 157.50633,0 157.50632,0 -0.25632,75.25 -0.25633,75.25 -156.58023,0.2531 c -86.11912,0.13921 -156.88167,-0.0483 -157.24997,-0.41666 z"
         id="path4213"
         inkscape:connector-curvature="0" />
      <path
         style="fill:#5c5c5c"
         d="m 349.0435,246.20092 c -25.2467,-3.61507 -47.7244,-18.09303 -62.5355,-40.27936 -7.0852,-10.61338 -13.6544,-29.1642 -13.9858,-39.49469 l -0.1467,-4.57241 5.9007,0 5.9007,0 2.747,11 c 3.3363,13.35922 5.5768,18.55367 12.5829,29.17209 9.7522,14.78036 23.4797,24.89628 41.3687,30.48488 6.4864,2.02638 9.5272,2.33989 22.5,2.31982 17.4909,-0.0271 23.1858,-1.25453 37,-7.9748 15.9162,-7.74288 27.8151,-19.48031 35.4835,-35.00199 5.4523,-11.03618 7.3792,-19.65802 7.3752,-33 -0.01,-26.57629 -12.4268,-48.20957 -35.811,-62.38186 -7.6923,-4.66204 -15.7548,-7.4422 -39.5477,-13.63703 -11.275,-2.93562 -24.55,-6.7718 -29.5,-8.52486 C 305.7583,62.75922 287.5818,45.92112 281.21,21.35446 c -2.2923,-8.83804 -2.3086,-30.00444 -0.03,-39.24096 8.5598,-34.70119 36.9432,-58.827784 74.0909,-62.978933 18.5562,-2.073606 39.034,1.903624 53.3136,10.354628 12.9194,7.646071 26.7461,23.831345 32.3473,37.865265 2.8074,7.03386 5.9047,18.6866 5.9269,22.29772 0.017,2.79444 0.01,2.79737 -6.1384,2.5 l -6.1556,-0.29772 -2.3254,-8.77431 c -7.6975,-29.04437 -24.3997,-46.024883 -50.4657,-51.306528 -11.3137,-2.292451 -30.5366,-1.54572 -40.3978,1.569292 -23.0152,7.270151 -38.576,21.940946 -46.1613,43.521146 -2.5799,7.33959 -2.8092,9.17141 -2.8151,22.4904 -0.01,13.17004 0.2346,15.16186 2.6229,21.71602 8.6884,23.84374 28.7199,36.5645 75.3303,47.83762 27.3242,6.60859 38.623,11.02757 51.0232,19.95531 23.8473,17.16925 35.5604,42.16356 34.2057,72.99105 -0.7113,16.18613 -4.1394,28.12665 -11.8511,41.27879 -5.1582,8.79727 -22.7752,25.83506 -32.1966,31.13812 -18.7304,10.54281 -41.6362,14.91561 -62.49,11.92955 z m 517.832,0.49112 c -31.0061,-3.03283 -55.7741,-11.58759 -79.5,-27.45897 -24.5715,-16.43706 -43.1378,-37.64125 -55.4941,-63.37861 -6.3167,-13.15724 -9.2671,-21.63728 -12.3649,-35.53982 -13.6513,-61.26521 7.1081,-124.85606 53.2636,-163.15905 27.173,-22.54999 57.3284,-34.685133 94.2237,-37.917623 48.3501,-4.236069 94.3598,12.558087 128.9489,47.068063 11.6244,11.59785 21.9228,24.24621 21.9228,26.92542 0,0.71435 -2.342,1.12301 -6.4358,1.12301 l -6.4357,0 -5.9502,-7.25 c -23.116,-28.16564 -52.6278,-46.365651 -87.4899,-53.955298 -8.7132,-1.896896 -13.2291,-2.218064 -31.1884,-2.218064 -18.089,0 -22.4555,0.314894 -31.5,2.271667 -57.3083,12.398615 -99.4084,51.219685 -115.4034,106.415085 -4.3815,15.11978 -5.9119,29.08062 -5.2877,48.23661 0.8316,25.5163 4.7528,41.53949 15.6623,64 25.3711,52.2343 76.6875,83.46798 137.1794,83.4941 65.937,0.0285 123.141,-41.72769 143.8611,-105.01166 3.4949,-10.67419 7.2681,-31.06353 6.7984,-36.73668 l -0.3101,-3.74576 -94,-0.5 -94,-0.5 0,-5 0,-5 100.2795,-0.25481 c 89.4606,-0.22732 100.3432,-0.0889 100.8696,1.28287 0.9435,2.4585 -1.4952,28.10759 -3.6359,38.24236 -2.8788,13.62883 -7.3326,26.20178 -14.0735,39.72958 -21.5935,43.33378 -62.5394,75.09672 -110.0315,85.35459 -15.9033,3.43497 -36.0354,4.83994 -49.9082,3.48299 z m 348.0498,-0.42384 c -12.358,-1.19004 -23.0256,-3.52666 -36.4029,-7.97365 -57.1425,-18.99579 -98.2034,-66.50958 -108.8174,-125.91849 -2.7697,-15.50272 -2.9645,-41.01278 -0.4315,-56.5216 10.4286,-63.85302 55.5758,-114.263862 117.4226,-131.112786 48.0286,-13.084428 97.0297,-5.348387 137.8302,21.759916 13.6899,9.09576 34.1505,29.24202 43.0136,42.35287 29.6614,43.87685 37.0467,97.44983 20.357,147.67084 -23.965,72.11328 -95.0951,117.24221 -172.9716,109.7429 z m 49.1492,-13.84509 c 29.1928,-6.28732 53.738,-19.78803 75.388,-41.46604 21.8132,-21.84153 34.815,-45.68806 41.6662,-76.41985 2.961,-13.28176 3.1948,-46.97353 0.4208,-60.64648 -2.4979,-12.31193 -7.0728,-26.23852 -12.3064,-37.46202 -13.7788,-29.54851 -41.0519,-57.2337 -70.1128,-71.17197 -46.133,-22.126485 -102.5096,-19.612915 -146.6319,6.53765 -36.3754,21.55902 -61.485,57.65765 -70.2959,101.06006 -2.7841,13.71452 -2.5204,47.22738 0.4811,61.14776 12.4986,57.96545 52.1873,100.62648 107.8195,115.89412 16.1062,4.42017 25.2217,5.42533 45.3724,5.00321 13.8218,-0.28955 20.9526,-0.91577 28.199,-2.47644 z M -537.1245,89.60436 c 0,-116.77214 -0.2772,-152.127103 -1.2,-153.0499 -0.8999,-0.899897 -13.16717,-1.2 -49.05226,-1.2 l -47.85226,0 0.30226,-5.25 0.30226,-5.25 103.75,-0.25465 103.75,-0.25465 0,5.50465 0,5.50465 -47.87756,0 c -38.94839,0 -48.08628,0.251507 -48.99676,1.348565 -0.81226,0.978715 -1.18866,42.871155 -1.37244,152.750005 l -0.25324,151.40143 -5.75,0.2999 -5.75,0.29991 0,-151.84991 z m 34,150.39288 c 0,-1.26073 26.12628,-62.44454 114.28694,-267.64278 l 20.40773,-47.5 8.12255,-0.289956 8.12255,-0.289956 1.41252,3.289956 c 0.77688,1.809476 31.00495,72.139956 67.17347,156.289956 36.16853,84.15 65.97829,154.03545 66.24393,155.301 0.469,2.23445 0.29858,2.29229 -5.89336,2 l -6.37633,-0.301 -23.0796,-53.5 c -12.69378,-29.425 -23.83128,-54.2875 -24.75,-55.25 -1.56392,-1.63845 -6.82145,-1.75 -82.47927,-1.75 -63.09818,0 -81.17142,0.27396 -82.46308,1.25 -0.90982,0.6875 -12.14816,25.55 -24.9741,55.25 l -23.31988,54 -6.21704,0.29772 c -4.90617,0.23494 -6.21703,-0.009 -6.21703,-1.15494 z m 219,-122.29742 c 0,-0.91005 -14.90728,-37.02255 -33.12729,-80.25 -18.22001,-43.22745 -35.01628,-83.09536 -37.32506,-88.59536 -2.457,-5.853112 -4.77384,-10 -5.58694,-10 -0.78115,0 -2.77245,3.282647 -4.54961,7.5 -1.73824,4.125 -15.76968,37.2 -31.18096,73.5 -40.46511,95.31222 -41.3606,97.47989 -40.70701,98.53742 0.37273,0.6031 28.95555,0.96258 76.53589,0.96258 69.99079,0 75.94098,-0.12965 75.94098,-1.65464 z m 82.46179,122.40464 c -0.26149,-0.6875 -0.35986,-71.9 -0.21861,-158.25 l 0.25682,-157 5.40535,-0.307647 c 3.64725,-0.207584 5.6751,0.11767 6.23469,1 0.45613,0.719206 0.83623,48.445147 0.84465,106.057647 0.008,57.6125 0.37367,104.75 0.81167,104.75 0.70328,0 22.52304,-28.50714 134.20774,-175.34008 l 27.5041,-36.15992 6.7459,-0.29569 c 4.7714,-0.209141 6.7459,0.05821 6.7459,0.913401 0,1.346644 -0.5149,2.036031 -67.48544,90.359969 -26.26364,34.63773 -47.96779,63.53985 -48.23145,64.22693 -0.42473,1.10684 18.96333,27.77692 95.55259,131.4415 11.6404,15.75536 21.1643,28.93758 21.1643,29.29381 0,0.35623 -3.2402,0.51548 -7.2005,0.35389 l -7.2005,-0.29381 -54.67103,-74 c -30.06907,-40.7 -55.27504,-74 -56.01325,-74 -1.40574,0 -7.6175,7.72911 -35.22288,43.82679 l -16.69184,21.82678 0,39.84143 c 0,21.91278 -0.27314,40.55323 -0.60699,41.42321 -0.76695,1.99863 -11.18702,2.2884 -11.93122,0.33179 z m 191.31151,0.68994 c -0.3081,-0.30803 0.037,-1.77053 0.7659,-3.25 0.7293,-1.47947 30.866,-71.53994 66.9705,-155.68994 36.1045,-84.15 66.3073,-154.031024 67.1174,-155.291164 1.3555,-2.108477 2.0824,-2.267947 9.1162,-2 l 7.6433,0.291164 5.8479,13.5 c 22.7646,52.55242 128.6752,299.79584 128.9381,301 0.2643,1.21105 -0.904,1.5 -6.0651,1.5 l -6.3925,0 -23.1704,-53.67213 c -12.7438,-29.51967 -23.7597,-54.38217 -24.48,-55.25 -1.173,-1.41345 -9.7693,-1.57787 -82.4959,-1.57787 -63.4483,0 -81.5282,0.27311 -82.7506,1.25 -0.8603,0.6875 -9.7011,20.15 -19.6463,43.25 -23.0672,53.57877 -27.4909,63.71282 -28.483,65.25 -0.8033,1.24453 -11.7748,1.83063 -12.9155,0.68994 z M 209.2897,118.49326 c 0.5906,-0.9556 -73.6303,-177.754942 -75.3397,-179.464291 -0.6738,-0.673802 -1.3916,-0.720234 -1.9249,-0.124509 -0.4677,0.5225 -9.9876,22.55 -21.1553,48.95 -11.1678,26.4 -28.1019,66.3938 -37.6314,88.87512 -9.5294,22.48131 -17.083,41.26881 -16.7856,41.75 0.7028,1.13716 152.1342,1.15072 152.8369,0.0137 z m 240.5858,121.94837 c 0,-0.50206 4.2217,-10.73956 9.3816,-22.75 5.1599,-12.01044 35.3619,-82.36217 67.1156,-156.33717 31.7537,-73.975 58.1871,-135.0625 58.7408,-135.75 1.3741,-1.705848 15.3496,-1.705848 16.4511,0 2.1372,3.309658 135.1105,314.26516 134.6839,314.95551 -0.2701,0.43697 -3.1162,0.79449 -6.3248,0.79449 l -5.8338,0 -4.4809,-10.25 c -2.4646,-5.6375 -12.9183,-29.825 -23.2306,-53.75 -10.3123,-23.925 -19.4388,-44.2875 -20.2812,-45.25 -1.4353,-1.63993 -6.6323,-1.74904 -82.6267,-1.73469 -44.6022,0.008 -81.6792,0.38587 -82.3931,0.83878 -0.714,0.4529 -11.6744,24.85851 -24.3563,54.23468 -12.682,29.37618 -23.5155,53.97373 -24.0743,54.66123 -1.1738,1.44385 -12.7713,1.75003 -12.7713,0.33717 z M 669.3473,118.40006 c 0.3244,-0.52491 -14.5603,-36.86241 -33.0772,-80.75 -18.5168,-43.88758 -35.4875,-84.1831 -37.7127,-89.5456 -2.2251,-5.3625 -4.5881,-9.75 -5.2512,-9.75 -0.6631,0 -3.9269,6.4125 -7.253,14.25 -51.6314,121.66243 -69.1777,163.5079 -69.1777,164.97944 0,1.67854 3.9469,1.77056 75.941,1.77056 47.1294,0 76.1648,-0.36209 76.5308,-0.9544 z"
         id="path4211"
         inkscape:connector-curvature="0" />
      <path
         style="fill:#1c1c1c"
         d="m 348.3419,244.97134 c -21.7195,-3.54812 -41.5904,-14.94238 -55.1833,-31.64289 -9.6422,-11.84669 -17.6997,-30.5069 -19.7677,-45.77977 l -0.7184,-5.30578 5.2687,0.30578 5.2687,0.30578 2.2193,9 c 4.7811,19.38912 12.057,32.26381 25.2129,44.6143 14.3645,13.48508 31.3283,19.86513 52.8552,19.87869 14.3121,0.009 26.6708,-2.99585 39.5882,-9.62538 7.6646,-3.9337 10.9521,-6.43874 18.79,-14.31775 15.8207,-15.90371 22.4158,-31.51703 22.4085,-53.04986 0,-13.43661 -1.6309,-20.69773 -7.2793,-32.5 -6.8099,-14.22941 -18.1959,-25.70543 -33.1292,-33.39138 -8.9913,-4.62765 -12.2109,-5.68321 -35.5,-11.63867 C 336.4039,73.64866 319.1095,66.65206 305.6976,56.46753 288.0382,43.05757 280.5158,26.39322 280.5938,0.85446 c 0.034,-11.07181 0.4302,-14.30634 2.6729,-21.80747 4.2569,-14.23779 9.5901,-23.52707 19.556,-34.06273 33.1589,-35.05446 96.781,-33.438504 125.6028,3.19023 8.1915,10.41031 15.1225,26.14476 16.9836,38.55561 l 0.7104,4.73734 -5.2376,-0.30649 -5.2375,-0.30649 -2.3966,-8.5 c -6.2764,-22.26007 -17.9256,-37.80566 -34.3723,-45.868815 -10.7455,-5.268064 -19.4797,-7.093738 -34,-7.106815 -14.2843,-0.01287 -25.1627,2.402224 -37,8.214298 -12.0482,5.915622 -23.8969,17.781442 -29.7183,29.761332 -5.8405,12.01929 -7.6766,21.42053 -7.0093,35.8899 0.9619,20.85748 8.0019,34.11785 24.2137,45.60853 12.8414,9.10184 22.1352,12.67812 54.7407,21.06446 27.3522,7.03518 36.3556,10.36162 47.0636,17.38849 18.4074,12.07938 29.8786,27.8507 35.3116,48.54862 2.5735,9.8041 2.5836,34.25264 0.018,43.49764 -8.9352,32.19771 -33.9525,56.10897 -66.9863,64.02469 -10.5841,2.5362 -27.0729,3.2436 -37.1674,1.59455 z m 514.5689,0.2957 c -63.0222,-6.06713 -116.6958,-48.1806 -137.4694,-107.86147 -6.8498,-19.679 -8.0072,-27.56409 -8.0072,-54.55111 0,-21.07292 0.2706,-25.23764 2.2188,-34.14776 2.7597,-12.62223 8.1208,-28.2183 13.5271,-39.35224 14.6244,-30.11811 41.5555,-57.01678 72.5511,-72.463754 32.1051,-15.999879 72.577,-21.217086 108.0512,-13.928828 27.7153,5.694163 55.3601,19.794151 77.2707,39.411202 7.2129,6.45782 20.7892,22.1443 24.1289,27.87924 l 1.8066,3.10214 -5.9364,0 -5.9364,0 -4.3183,-5.75 c -6.1655,-8.20949 -20.154,-21.95007 -28.9766,-28.46292 -17.4526,-12.88354 -36.2971,-21.525958 -57.4454,-26.345504 -17.319,-3.946879 -41.6735,-4.561559 -59.6786,-1.506223 -32.807,5.56709 -58.8675,18.522377 -81.7716,40.650617 -24.8439,24.00226 -40.1565,54.29524 -45.1238,89.26834 -1.737,12.22945 -0.6458,42.05542 1.9725,53.91611 6.8554,31.05425 19.8179,55.00869 41.5589,76.80009 22.2179,22.26936 47.4465,35.69991 79.0789,42.09792 12.6943,2.56758 47.1705,2.58102 59.803,0.0233 60.5716,-12.26399 107.5603,-59.27449 120.136,-120.19175 1.6083,-7.79105 3.2218,-24.2619 2.4232,-24.73718 -0.2192,-0.13045 -42.6985,-0.46795 -94.3985,-0.75 l -94,-0.51282 0,-4 0,-4 99.5,0 99.5,0 -0.3395,10.5 c -0.7245,22.41276 -6.9053,46.57959 -17.1597,67.09525 -30.054,60.12774 -93.7957,94.47629 -162.9655,87.81733 z m 353.1046,0.0781 c -51.0296,-5.34871 -96.0208,-32.59749 -122.5135,-74.19984 -32.4638,-50.97906 -33.4849,-120.85792 -2.5223,-172.61026 47.808,-79.908509 155.3797,-103.32063 233.5611,-50.83267 28.5795,19.18723 51.3113,49.28147 62.3521,82.54694 10.6586,32.11401 11.5895,62.72022 2.9141,95.8196 -14.5432,55.48783 -57.7399,98.81108 -113.9314,114.26533 -17.0253,4.68245 -42.5826,6.82185 -59.8601,5.0109 z m 48.3601,-11.91925 c 47.1802,-10.92443 83.3779,-38.90334 104.2393,-80.57143 11.5567,-23.08296 16.3216,-43.24357 16.3543,-69.19564 0.02,-16.01011 -1.2636,-26.29992 -5.091,-40.80436 -7.1941,-27.26353 -19.9393,-49.40321 -40.0026,-69.48848 -29.279,-29.31113 -65.1853,-44.01152 -107.5,-44.01152 -74.7959,0 -134.8643,48.24651 -150.6486,121 -1.9745,9.10093 -2.2781,13.36476 -2.2781,32 0,18.61578 0.305,22.90857 2.2734,32 6.9346,32.02981 19.5128,55.48848 41.5888,77.5645 24.8269,24.82694 52.4415,38.26116 90.0645,43.81555 1.65,0.2436 11.775,0.29269 22.5,0.1091 15.3195,-0.26224 21.4294,-0.78056 28.5,-2.41772 z m -1800.5,-144.87143 c 0,-116.73333 -0.27721,-152.077207 -1.2,-153 -0.89986,-0.899861 -13.15556,-1.2 -49,-1.2 l -47.8,0 0,-4.5 0,-4.5 103,0 103,0 0,4.5 0,4.5 -47.8,0 c -35.84444,0 -48.10014,0.300139 -49,1.2 -0.92279,0.922793 -1.2,36.26667 -1.2,153 l 0,151.8 -5,0 -5,0 0,-151.8 z m 34,151.1502 c 0,-0.58933 46.80482,-109.88502 110.20773,-257.3502 l 24.29227,-56.5 7.5,0 7.5,0 23.58639,55 c 12.97251,30.25 43.23501,100.75708 67.25,156.68241 24.01498,55.92532 43.66361,101.93782 43.66361,102.25 0,1.15037 -9.78578,0.52882 -10.74399,-0.68241 -0.54389,-0.6875 -10.77625,-23.975 -22.73859,-51.75 -23.29839,-54.09586 -24.2114,-56.11291 -25.90695,-57.23469 -0.61076,-0.40408 -37.81196,-0.74158 -82.66934,-0.75 -63.76449,-0.012 -81.90033,0.25741 -83.1239,1.23469 -0.86076,0.6875 -11.82797,25.1 -24.37158,54.25 -12.5436,29.15 -23.23045,53.5625 -23.74854,54.25 -0.95348,1.26524 -10.69711,1.81194 -10.69711,0.6002 z m 219.3023,-120.69559 c 0.28395,-0.73996 -13.77127,-35.27746 -31.23383,-76.75 -44.33746,-105.298845 -44.13554,-104.828025 -45.25523,-105.520034 -0.55284,-0.341674 -1.57099,-0.0055 -2.26255,0.7471 -0.69156,0.752578 -6.30323,13.293324 -12.47038,27.868324 -6.16715,14.575 -23.16081,54.72572 -37.76369,89.22382 -14.73122,34.8013 -26.28998,63.40322 -25.96504,64.25 0.51802,1.34994 9.46876,1.52618 77.51005,1.52618 63.52582,0 77.01432,-0.23434 77.44067,-1.34539 z m 82.15948,120.09539 c -0.26149,-0.6875 -0.35987,-71.45 -0.21861,-157.25 l 0.25683,-156 4.75,-0.304791 4.75,-0.304791 0.0136,103.804792 c 0.008,57.09263 0.285,104.81729 0.61664,106.05479 0.33163,1.2375 1.33799,2.22603 2.23634,2.19673 0.90292,-0.0294 6.55261,-6.60807 12.63337,-14.71058 6.05,-8.06152 30.53267,-40.32504 54.40594,-71.69673 23.87332,-31.37168 54.87631,-72.11442 68.89561,-90.53942 14.0192,-18.425 25.9866,-33.830609 26.594,-34.234687 1.2631,-0.840168 11.6045,-1.043491 11.6045,-0.228156 0,0.295436 -15.4412,20.882933 -34.3137,45.750003 -78.6153,103.58593 -81.85733,107.95082 -81.4207,109.62049 0.38752,1.4819 16.2795,23.20554 96.0386,131.28058 10.8327,14.67853 19.6958,26.94103 19.6958,27.25 0,0.83318 -10.325,0.65151 -11.5682,-0.20354 -0.5875,-0.40408 -10.5289,-13.55969 -22.092,-29.23469 -76.32793,-103.47114 -87.6414,-118.52761 -89.26734,-118.80105 -1.31589,-0.2213 -8.51663,8.44512 -27.18129,32.71397 -13.96514,18.15827 -25.67543,34.26874 -26.02286,35.80105 -0.34742,1.53232 -0.68492,20.22353 -0.75,41.53603 l -0.11831,38.75 -4.53138,0 c -2.70487,0 -4.72303,-0.50385 -5.00684,-1.25 z m 191.99542,-0.5 c 0.3691,-0.9625 19.6157,-45.85 42.7703,-99.75 23.1545,-53.9 53.1962,-123.875 66.7593,-155.5 l 24.6601,-57.5 7.0204,-0.290657 c 4.8491,-0.200762 7.3269,0.10852 8.0117,1 0.5453,0.709861 5.615,12.090657 11.2661,25.290657 24.966,58.31639 101.8334,237.3609 111.9338,260.72346 6.1166,14.1479 11.1211,26.1854 11.1211,26.75 0,0.56459 -2.2342,1.02654 -4.9648,1.02654 -3.8682,0 -5.1912,-0.42305 -5.9899,-1.91532 -0.5638,-1.05342 -11.172,-25.46592 -23.5739,-54.25 -12.4019,-28.78407 -23.2925,-52.89718 -24.2013,-53.58468 -1.2909,-0.97657 -19.4927,-1.24665 -83.2112,-1.23469 -44.8574,0.008 -82.1175,0.37009 -82.8003,0.8037 -1.081,0.68654 -8.5184,17.5284 -41.4802,93.93099 l -7.0106,16.25 -5.4909,0 c -4.8184,0 -5.4087,-0.21432 -4.8197,-1.75 z m 219.1208,-119.5926 c 0.4276,-1.11426 -74.4692,-180.881934 -75.9979,-182.41067 -1.7178,-1.717808 -4.8023,4.428534 -19.0135,37.88811 C 64.408,94.64607 54.801,117.71784 55.2812,118.9692 c 0.7809,2.03507 154.3915,2.0773 155.1723,0.0427 z m 241.1968,120.7841 c -0.3566,-0.35659 0.233,-2.51431 1.3102,-4.79492 1.0772,-2.28062 31.3938,-72.77158 67.3703,-156.64658 l 65.4118,-152.5 7.4218,-0.28946 7.4218,-0.289461 67.1447,156.420331 c 36.9295,86.03118 67.1446,156.94745 67.1446,157.59172 0,0.78282 -1.7105,1.07113 -5.1567,0.86913 l -5.1567,-0.30226 -3.2252,-7.5 c -29.6277,-68.89624 -43.7502,-100.72896 -45.141,-101.75 -1.3293,-0.97589 -19.6082,-1.25 -83.3565,-1.25 -76.5205,0 -81.7494,0.11002 -83.1723,1.75 -0.8351,0.9625 -9.0776,19.3 -18.3167,40.75 -9.239,21.45 -19.6256,45.525 -23.0813,53.5 l -6.283,14.5 -4.8437,0.29492 c -2.664,0.16221 -5.1355,0.003 -5.4921,-0.35342 z M 670.5017,118.88625 c 0.3098,-0.80752 -12.9461,-33.54502 -29.4577,-72.75 -48.098,-114.20365 -46.2231,-109.918287 -47.9436,-109.583313 -0.9563,0.186174 -4.5591,7.378783 -9.4177,18.801523 -44.827,105.38957 -68.8741,163.08277 -68.3368,163.95204 0.4424,0.71593 25.0355,1.04796 77.62,1.04796 66.7567,0 77.0471,-0.19486 77.5358,-1.46821 z"
         id="path4209"
         inkscape:connector-curvature="0" />
    </g>
  </g>
</svg>
